<?xml version="1.0" standalone="no"?>
<!DOCTYPE svg PUBLIC "-//W3C//DTD SVG 20010904//EN"
 "http://www.w3.org/TR/2001/REC-SVG-20010904/DTD/svg10.dtd">
<svg version="1.0" xmlns="http://www.w3.org/2000/svg"
 width="700.000000pt" height="700.000000pt" viewBox="0 0 700.000000 700.000000"
 preserveAspectRatio="xMidYMid meet">
<metadata>
Created by potrace 1.14, written by Peter Selinger 2001-2017
</metadata>
<g transform="translate(0.000000,700.000000) scale(0.100000,-0.100000)"
fill="#000000" stroke="none">
<path d="M3076 6989 c-213 -31 -418 -138 -563 -292 -112 -120 -186 -257 -228
-422 -23 -90 -26 -123 -29 -325 -4 -237 -14 -311 -60 -446 -106 -313 -357
-575 -661 -689 -156 -60 -203 -67 -475 -75 -298 -8 -362 -21 -525 -100 -468
-228 -663 -787 -440 -1258 121 -255 333 -434 611 -514 68 -20 102 -23 244 -23
126 0 180 4 228 18 344 94 588 330 688 664 25 81 27 108 34 343 5 174 12 278
23 327 90 400 363 706 751 839 125 43 218 56 405 55 105 -1 213 5 271 14 310
46 573 239 710 520 75 153 94 239 94 420 1 181 -18 266 -94 420 -180 368 -582
583 -984 524z"/>
<path d="M5526 6735 c-283 -59 -515 -227 -652 -471 -87 -155 -129 -344 -120
-539 14 -330 -74 -605 -271 -839 -146 -174 -352 -300 -590 -362 -88 -23 -126
-27 -363 -34 -302 -9 -347 -17 -505 -95 -209 -103 -371 -279 -459 -498 -49
-123 -57 -177 -66 -457 -7 -241 -11 -274 -34 -360 -99 -356 -356 -639 -695
-767 -146 -55 -210 -64 -486 -73 -240 -7 -267 -10 -349 -34 -206 -62 -375
-177 -496 -337 -110 -146 -168 -293 -191 -477 -25 -211 30 -440 150 -623 290
-440 889 -560 1326 -266 192 130 332 330 390 561 22 87 25 121 25 275 1 296
28 437 120 627 146 300 408 513 740 601 85 23 123 26 360 33 245 7 272 10 353
34 330 99 568 344 654 676 22 85 25 118 28 320 2 151 8 250 18 301 95 470 454
822 924 904 54 9 151 15 262 15 191 0 306 14 411 50 327 113 565 392 631 737
17 90 7 320 -18 408 -60 212 -194 405 -368 531 -71 51 -216 119 -310 144 -104
28 -319 36 -419 15z"/>
<path d="M5789 4224 c-186 -33 -360 -124 -495 -259 -129 -128 -197 -243 -250
-420 -24 -83 -27 -111 -35 -350 -8 -278 -16 -331 -68 -475 -118 -323 -401
-591 -725 -687 -124 -37 -189 -45 -436 -53 -216 -7 -266 -11 -329 -29 -331
-97 -582 -352 -668 -679 -36 -137 -38 -336 -4 -467 87 -339 328 -588 668 -692
80 -24 103 -27 253 -27 139 0 177 4 245 22 303 83 542 299 651 587 46 123 55
187 64 455 6 208 11 269 28 332 112 418 412 716 831 825 84 22 127 26 351 33
283 8 344 19 484 84 223 103 413 303 493 520 55 148 76 343 54 486 -82 530
-586 890 -1112 794z"/>
</g>
</svg>
