<svg width="124" height="29" viewBox="0 0 124 29" fill="none" xmlns="http://www.w3.org/2000/svg">
<path d="M26.7301 9.95001C27.0901 9.95001 27.2101 10.08 27.2101 10.43V18.35H31.2801C31.6301 18.35 31.7601 18.48 31.7601 18.83V19.53C31.7601 19.88 31.6301 20.01 31.2801 20.01H25.9201C25.5701 20.01 25.4301 19.88 25.4301 19.53V10.43C25.4301 10.08 25.5701 9.95001 25.9201 9.95001H26.7301Z" fill="#696871"/>
<path fill-rule="evenodd" clip-rule="evenodd" d="M39.31 9.73999C36.77 9.73999 35.31 11.13 35.31 13.44V16.52C35.31 18.83 36.78 20.22 39.31 20.22C41.84 20.22 43.31 18.83 43.31 16.52V13.44C43.31 11.13 41.85 9.73999 39.31 9.73999ZM39.36 11.44C40.82 11.44 41.63 12.14 41.63 13.44V16.54C41.63 17.82 40.82 18.54 39.36 18.54C37.9 18.54 37.1 17.85 37.1 16.54V13.44C37.1 12.15 37.9 11.44 39.36 11.44Z" fill="#696871"/>
<path d="M55.22 14.5C55.61 14.5 55.7 14.63 55.7 14.98V16.88C55.7215 17.7864 55.3318 18.6539 54.64 19.24C53.7917 19.9155 52.7221 20.2507 51.64 20.18C49.05 20.18 47.64 18.79 47.64 16.48V13.38C47.64 11.1 49.1 9.70001 51.64 9.70001C53.64 9.70001 54.94 10.49 55.49 12.07C55.5524 12.1904 55.5544 12.3331 55.4953 12.4552C55.4363 12.5772 55.3231 12.6642 55.19 12.69L54.41 12.96C54.07 13.08 53.93 13.01 53.81 12.66C53.4692 11.7813 52.5756 11.2459 51.64 11.36C50.17 11.36 49.37 12.07 49.37 13.36V16.54C49.37 17.85 50.18 18.54 51.64 18.54C53.1 18.54 54 17.87 54 16.89V16.15H51.83C51.47 16.15 51.34 16.01 51.34 15.66V14.98C51.34 14.63 51.47 14.5 51.83 14.5H55.22Z" fill="#696871"/>
<path fill-rule="evenodd" clip-rule="evenodd" d="M63.83 9.73999C61.29 9.73999 59.83 11.13 59.83 13.44V16.52C59.83 18.83 61.3 20.22 63.83 20.22C66.36 20.22 67.83 18.83 67.83 16.52V13.44C67.83 11.13 66.37 9.73999 63.83 9.73999ZM63.88 11.44C65.33 11.44 66.14 12.14 66.14 13.44V16.54C66.14 17.82 65.34 18.54 63.88 18.54C62.42 18.54 61.61 17.85 61.61 16.54V13.44C61.61 12.15 62.43 11.44 63.88 11.44Z" fill="#696871"/>
<path d="M72.54 10.24C72.54 10.02 72.61 9.95001 72.83 9.95001H73.29C73.51 9.95001 73.56 10.02 73.56 10.24V19.72C73.56 19.94 73.56 20.01 73.29 20.01H72.83C72.61 20.01 72.54 19.94 72.54 19.72V10.24Z" fill="#696871"/>
<path fill-rule="evenodd" clip-rule="evenodd" d="M85.81 13.09C85.81 11.3558 84.4042 9.95001 82.67 9.95001H78.94C78.73 9.95001 78.65 10.02 78.65 10.24V19.72C78.65 19.94 78.73 20.01 78.94 20.01H79.41C79.62 20.01 79.67 19.94 79.67 19.72V16.23H82.67C84.4042 16.23 85.81 14.8242 85.81 13.09ZM84.468 14.15C84.0785 14.8245 83.3589 15.24 82.58 15.24H79.58V10.88H82.58C83.3589 10.88 84.0785 11.2955 84.468 11.97C84.8574 12.6445 84.8574 13.4755 84.468 14.15Z" fill="#696871"/>
<path d="M93.62 9.75C95.2054 9.57503 96.7178 10.4613 97.34 11.93C97.42 12.09 97.34 12.22 97.18 12.3L96.74 12.5C96.56 12.57 96.49 12.56 96.38 12.37C95.9151 11.2808 94.7989 10.6175 93.62 10.73C91.93 10.73 91.01 11.4 91.01 12.6C90.9897 13.3583 91.5317 14.0155 92.28 14.14C92.8178 14.3154 93.3755 14.4229 93.94 14.46C94.6233 14.4964 95.2974 14.6346 95.94 14.87C96.9554 15.1913 97.6064 16.1804 97.5 17.24C97.5 19.11 96.14 20.24 93.64 20.24C91.9503 20.4333 90.3549 19.421 89.81 17.81C89.7743 17.7378 89.7726 17.6535 89.8055 17.58C89.8384 17.5065 89.9024 17.4515 89.98 17.43L90.42 17.27C90.4901 17.2414 90.569 17.2435 90.6374 17.2758C90.7059 17.3081 90.7576 17.3677 90.78 17.44C91.239 18.5993 92.3962 19.3276 93.64 19.24C95.53 19.24 96.46 18.58 96.46 17.24C96.4963 16.5126 96.0015 15.8655 95.29 15.71C94.7726 15.5557 94.239 15.4617 93.7 15.43L92.62 15.29C92.282 15.2183 91.9482 15.1281 91.62 15.02C91.2958 14.9221 90.9936 14.7625 90.73 14.55C90.193 14.0637 89.8999 13.3639 89.93 12.64C90 10.89 91.31 9.75 93.62 9.75Z" fill="#696871"/>
<path d="M102.89 16.59C102.978 18.058 104.194 19.2034 105.665 19.2034C107.136 19.2034 108.352 18.058 108.44 16.59V10.24C108.44 10.02 108.51 9.95001 108.73 9.95001H109.19C109.41 9.95001 109.48 10.02 109.48 10.24V16.58C109.48 18.85 108.14 20.22 105.67 20.22C103.2 20.22 101.86 18.85 101.86 16.58V10.24C101.86 10.02 101.93 9.95001 102.14 9.95001H102.61C102.82 9.95001 102.89 10.02 102.89 10.24V16.59Z" fill="#696871"/>
<path d="M123.28 9.94998C123.5 9.94998 123.57 10.02 123.57 10.24V19.72C123.57 19.94 123.5 20.01 123.28 20.01H122.86C122.65 20.01 122.58 19.94 122.58 19.72V13.95C122.58 13.1104 122.637 12.2718 122.75 11.44H122.69C122.378 12.2007 122.013 12.9391 121.6 13.65L119.45 17.44C119.396 17.5746 119.265 17.6621 119.12 17.66H118.84C118.693 17.6607 118.56 17.5743 118.5 17.44L116.32 13.61C115.933 12.9092 115.599 12.1805 115.32 11.43H115.26C115.362 12.2695 115.416 13.1143 115.42 13.96V19.72C115.42 19.94 115.35 20.01 115.13 20.01H114.74C114.52 20.01 114.45 19.94 114.45 19.72V10.24C114.45 10.02 114.52 9.94998 114.74 9.94998H115.1C115.269 9.93427 115.429 10.0264 115.5 10.18L119 16.4L122.48 10.24C122.59 10.03 122.65 9.99998 122.87 9.99998L123.28 9.94998Z" fill="#696871"/>
<path fill-rule="evenodd" clip-rule="evenodd" d="M2.31002 0.93V21.24C2.31002 21.4893 2.21099 21.7284 2.0347 21.9047C1.85842 22.081 1.61933 22.18 1.37002 22.18H1.15002C0.630874 22.18 0.210022 21.7591 0.210022 21.24V0.93C0.215504 0.414762 0.634755 -2.91581e-05 1.15002 0H1.37002C1.88529 -2.91581e-05 2.30454 0.414762 2.31002 0.93ZM13.8404 13.8046C14.0389 13.6156 14.3063 13.5163 14.58 13.53L14.53 13.55C14.821 13.5203 15.1104 13.6195 15.322 13.8215C15.5336 14.0234 15.6462 14.3079 15.63 14.6V20.1C15.63 20.6799 15.1599 21.15 14.58 21.15C14.0001 21.15 13.53 20.6799 13.53 20.1V14.53C13.5297 14.2559 13.6419 13.9937 13.8404 13.8046ZM16.84 16.7C16.84 16.1477 17.2877 15.7 17.84 15.7C18.1294 15.6734 18.416 15.774 18.6253 15.9756C18.8345 16.1772 18.9458 16.4599 18.93 16.75V17.96C18.93 18.5371 18.4622 19.005 17.885 19.005C17.3079 19.005 16.84 18.5371 16.84 17.96V16.7ZM8.94002 25.02V17.79C8.62731 18.0277 8.24266 18.1512 7.85002 18.14C7.48985 18.1311 7.14098 18.0125 6.85002 17.8V25.02C6.85002 25.5971 7.31788 26.065 7.89502 26.065C8.47216 26.065 8.94002 25.5971 8.94002 25.02ZM4.58002 20.53C4.22019 20.5192 3.87186 20.4008 3.58002 20.19V27.44C3.58002 28.0199 4.05012 28.49 4.63002 28.49C5.20992 28.49 5.68002 28.0199 5.68002 27.44V20.24C5.35347 20.4511 4.96819 20.5526 4.58002 20.53ZM11.26 15.67C10.8834 15.6674 10.5167 15.5487 10.21 15.33V22.6C10.21 23.1799 10.6801 23.65 11.26 23.65C11.8399 23.65 12.31 23.1799 12.31 22.6V15.34C11.9928 15.5763 11.6055 15.6995 11.21 15.69L11.26 15.67ZM4.69002 19.76H4.47002C3.95087 19.76 3.53002 19.3391 3.53002 18.82V3.35C3.5355 2.83476 3.95475 2.41997 4.47002 2.42H4.69002C5.20529 2.41997 5.62454 2.83476 5.63002 3.35V18.84C5.63002 19.3591 5.20917 19.78 4.69002 19.78V19.76ZM7.77002 17.38H8.00002C8.51365 17.38 8.93002 16.9636 8.93002 16.45V5.75C8.93005 5.23473 8.51526 4.81548 8.00002 4.81H7.77002C7.52163 4.80999 7.28355 4.90934 7.10885 5.08592C6.93415 5.26249 6.83735 5.50162 6.84002 5.75V16.45C6.84002 16.9636 7.2564 17.38 7.77002 17.38ZM11.31 14.93H11.1C10.5848 14.93 10.1655 14.5152 10.16 14V8.24C10.1434 7.98047 10.2351 7.72567 10.4132 7.53618C10.5913 7.3467 10.84 7.23947 11.1 7.24H11.32C11.8392 7.24 12.26 7.66085 12.26 8.18V13.98C12.2627 14.231 12.1648 14.4727 11.9883 14.6512C11.8117 14.8296 11.5711 14.93 11.32 14.93H11.31ZM14.41 12.78H14.63H14.64C15.1553 12.7745 15.5701 12.3553 15.57 11.84V10.35C15.5645 9.83476 15.1453 9.41997 14.63 9.42H14.41C13.8948 9.41997 13.4755 9.83476 13.47 10.35V11.84C13.47 12.3591 13.8909 12.78 14.41 12.78Z" fill="#696871"/>
</svg>
