<svg width="72" height="72" viewBox="0 0 72 72" fill="none" xmlns="http://www.w3.org/2000/svg">
<path d="M54.3448 31.2543C52.2957 33.3159 51.2717 36.1832 51.5514 39.0765L51.5033 39.0284C51.7907 42.4331 50.5626 45.7914 48.1465 48.2074C45.7305 50.6235 42.3722 51.8516 38.9675 51.5642L39.0156 51.6123C34.8932 51.2286 30.9729 53.4709 29.2137 57.2187C27.4544 60.9664 28.234 65.4149 31.1629 68.3411C34.0917 71.2673 38.5409 72.0429 42.2871 70.2803C46.0333 68.5176 48.2721 64.5953 47.8846 60.4733L47.9354 60.5214C47.648 57.1167 48.8761 53.7584 51.2921 51.3424C53.7082 48.9263 57.0665 47.6982 60.4712 47.9856L60.4204 47.9375C64.951 48.345 69.1667 45.5825 70.6017 41.2659C72.0367 36.9493 70.314 32.2127 66.4413 29.8265C62.5685 27.4403 57.5631 28.0315 54.3528 31.2543H54.3448Z" fill="#5454D4"/>
<path d="M34.6438 45.315L34.593 45.2669C37.4881 45.5586 40.3611 44.5349 42.4194 42.4782C44.4776 40.4215 45.5035 37.5492 45.214 34.6539L45.2648 34.702C44.9773 31.2973 46.2055 27.939 48.6215 25.523C51.0376 23.1069 54.3959 21.8788 57.8006 22.1662L57.7498 22.1181C61.8725 22.5053 65.7952 20.2654 67.5571 16.5182C69.3191 12.7709 68.5418 8.32114 65.6138 5.39314C62.6858 2.46514 58.236 1.68783 54.4887 3.44976C50.7415 5.21169 48.5016 9.13439 48.8888 13.2571L48.8407 13.2063C49.1291 16.6113 47.9012 19.9701 45.485 22.3864C43.0687 24.8027 39.7098 26.0305 36.3049 25.7421L36.353 25.7929C33.4579 25.5012 30.5849 26.5249 28.5266 28.5816C26.4684 30.6383 25.4424 33.5106 25.732 36.4059L25.6839 36.3578C25.9703 39.7623 24.7419 43.1199 22.3261 45.5358C19.9103 47.9516 16.5526 49.18 13.1481 48.8936L13.1962 48.9417C9.07348 48.5545 5.15078 50.7944 3.38885 54.5416C1.62692 58.2889 2.40423 62.7386 5.33223 65.6666C8.26024 68.5946 12.71 69.372 16.4573 67.61C20.2045 65.8481 22.4444 61.9254 22.0572 57.8027L22.108 57.8508C21.8206 54.4461 23.0487 51.0878 25.4647 48.6717C27.8808 46.2557 31.2391 45.0276 34.6438 45.315Z" fill="#FF7143"/>
<path d="M16.7454 39.9551C18.7948 37.8938 19.818 35.0259 19.5362 32.1329L19.5869 32.181C19.2993 28.7752 20.5281 25.416 22.9454 22.9997C25.3627 20.5835 28.7225 19.3561 32.1281 19.6452L32.0773 19.5971C36.1986 19.9832 40.1194 17.7435 41.8802 13.9974C43.6411 10.2514 42.8638 5.80335 39.9369 2.87643C37.01 -0.0504837 32.562 -0.827744 28.8159 0.93311C25.0698 2.69396 22.8302 6.61478 23.2163 10.736L23.1682 10.688C23.4556 14.0927 22.2275 17.4509 19.8114 19.867C17.3954 22.283 14.0371 23.5112 10.6324 23.2238L10.6805 23.2718C6.15006 22.8655 1.93522 25.6287 0.501064 29.9453C-0.933089 34.2619 0.790161 38.998 4.66294 41.3836C8.53572 43.7692 13.5407 43.1777 16.7507 39.9551H16.7454Z" fill="#5454D4"/>
</svg>
